<svg width="749" height="235" viewBox="0 0 749 235" fill="none" xmlns="http://www.w3.org/2000/svg">
<path fill-rule="evenodd" clip-rule="evenodd" d="M572.795 4.78215C612.021 4.67231 694.495 -2.20985 697.886 54.3993C699.774 85.8831 670.824 101.33 643.864 105.79C637.366 106.865 631.934 106.694 625.388 106.955C630.999 108.685 637.286 108.171 643.058 108.897C676.001 113.045 706.749 126.623 712.97 162.352C717.58 196.776 694.85 219.119 662.842 226.063C653.534 228.083 641.274 230.525 631.904 230.968C581.891 233.331 531.128 230.477 481.194 231.232C481.677 211.322 481.212 189.023 481.216 168.922L481.249 4.79582L572.795 4.78215ZM577.39 114.341C561.32 114.259 545.335 113.718 529.313 114.048C529.144 137.7 529.1 161.353 529.177 185.006L529.185 205.407C529.203 209.308 529.035 215.844 529.879 219.498C542.321 219.899 554.928 219.508 567.392 219.609C589.299 219.787 611.678 220.444 632.939 214.276C637.278 213.017 647.835 207.434 651.287 204.241C651.477 204.064 651.664 203.882 651.843 203.695C670.773 189.072 671.021 155.733 656.738 138.112C638.32 115.386 604.097 114.477 577.39 114.341ZM557.814 16.2792C553.77 16.4317 531.676 16.0242 529.875 17.0566C528.787 21.7002 529.177 40.4852 529.177 46.0907C529.096 64.9792 529.155 83.8681 529.349 102.756L569.324 102.842C588.992 102.807 602.651 103.95 621.65 98.0068C622.735 97.714 623.813 97.3988 624.891 97.0937C649.103 90.2403 658.374 67.576 651.927 44.1689C649.574 35.5424 643.842 28.229 636.032 23.8827C621.099 15.4227 590.611 16.5907 573.471 16.3945C570.552 16.361 560.042 16.6937 557.814 16.2792Z" fill="white" fill-opacity="0.988235"/>
<path fill-rule="evenodd" clip-rule="evenodd" d="M4.81548 4.88664C26.452 4.21196 49.2582 4.60635 70.9717 4.76848C112.873 5.08132 156.35 1.03314 194.674 21.2411C235.029 42.4195 252.098 85.4176 247.626 129.363C245.021 154.957 233.152 181.982 212.99 198.636C179.128 230.394 130.694 231.947 87.0967 231.838L32.3497 231.373C24.5165 231.334 12.2994 230.954 4.74322 231.533L4.73247 23.6552C4.71805 18.5452 4.26624 9.52045 4.81548 4.88664ZM57.2598 16.2665C55.327 16.3618 53.2425 16.504 51.3213 16.4765C51.1003 30.581 51.0351 44.6878 51.126 58.7939L51.1426 186.146C51.1412 196.948 50.9044 208.879 51.2354 219.582L79.629 219.648C93.2343 219.658 102.575 219.754 116.176 217.763C133.842 215.177 149.958 211.048 164.209 199.463C165.564 198.373 168.074 197.016 168.85 196.264C169.043 196.076 169.227 195.877 169.399 195.67C192.443 171.818 198.82 148.396 198.627 115.253C198.468 87.7371 191.068 59.5 170.575 40.0126C146.814 17.118 115.972 16.4635 84.9669 16.4599L57.2598 16.2665Z" fill="white" fill-opacity="0.988235"/>
<path d="M385.195 4.79777C408.505 4.81703 434.256 4.19722 457.329 4.91398C456.785 14.788 457.556 27.795 457.314 38.2616C454.717 38.4769 450.749 38.3235 448.035 38.288C447.085 33.3022 445.931 28.6415 442.041 24.9755C434.11 17.5806 422.018 17.7001 411.965 17.0527C398.876 16.2096 385.988 16.4455 372.914 16.4091C373.312 30.3123 372.903 46.641 372.899 60.7275L372.907 231.263C356.629 231.163 340.351 231.163 324.074 231.262C324.586 226.585 324.225 214.136 324.218 208.682L324.05 16.5136C314.259 16.0723 303.287 16.4248 293.503 16.7909C276.557 17.4251 252.873 15.9367 250.346 38.3241C247.183 38.406 244.752 38.4048 241.597 38.2294C242.277 29.0035 241.883 14.2902 241.843 4.74406L385.195 4.79777Z" fill="white" fill-opacity="0.988235"/>
<path fill-rule="evenodd" clip-rule="evenodd" d="M720.005 15.7548C724.177 16.3028 728.896 15.0025 732.685 17.2782C737.364 20.0887 732.261 24.7218 730.511 27.5077C730.544 28.4826 733.185 33.1998 733.828 34.6386L733.481 35.2607C732.031 35.7073 731.428 35.7689 730.485 34.578C729.901 31.9074 728.378 30.2566 726.76 28.0693C725.974 27.7165 724.246 27.292 723.344 27.0429C723.38 28.8349 723.771 34.09 722.84 35.6816C722.617 36.064 721.445 36.0648 720.846 36.1308L720.345 35.703C719.749 33.0811 719.99 19.3606 720.005 15.7548ZM723.256 24.79C726.138 24.8361 727.691 24.8619 730.38 23.7939C731.509 21.5998 730.833 20.4663 730.128 18.039C728.466 18.0001 724.857 18.0168 723.352 17.8134L723.256 24.79Z" fill="white" fill-opacity="0.988235"/>
<path fill-rule="evenodd" clip-rule="evenodd" d="M723.45 7.96184C733.302 6.19746 742.712 12.7838 744.433 22.6484C746.149 32.5129 739.523 41.8959 729.656 43.5712C719.852 45.2354 710.548 38.6579 708.838 28.8564C707.132 19.0547 713.664 9.71516 723.45 7.96184ZM741.467 23.5361C740.298 15.4219 732.798 9.77459 724.681 10.8925C716.487 12.021 710.777 19.608 711.961 27.7978C713.141 35.9875 720.761 41.649 728.94 40.413C737.043 39.1883 742.639 31.6502 741.467 23.5361Z" fill="white" fill-opacity="0.988235"/>
</svg>
